<?xml version="1.0" standalone="no"?>
<!DOCTYPE svg PUBLIC "-//W3C//DTD SVG 20010904//EN"
 "http://www.w3.org/TR/2001/REC-SVG-20010904/DTD/svg10.dtd">
<svg version="1.0" xmlns="http://www.w3.org/2000/svg"
 width="485.000000pt" height="485.000000pt" viewBox="0 0 485.000000 485.000000"
 preserveAspectRatio="xMidYMid meet">
<metadata>
Created by potrace 1.11, written by Peter Selinger 2001-2013
</metadata>
<g transform="translate(0.000000,485.000000) scale(0.100000,-0.100000)"
fill="#000000" stroke="none">
<path d="M1820 4818 c-11 -18 -20 -36 -20 -40 0 -4 -6 -5 -14 -2 -24 9 -91
-15 -116 -41 -25 -27 -59 -32 -78 -13 -16 16 -42 -7 -42 -39 0 -21 -43 -72
-62 -73 -4 0 -10 16 -14 35 -3 19 -9 35 -11 35 -3 0 -21 -9 -39 -21 -39 -24
-53 -61 -33 -86 13 -16 12 -16 -11 0 -31 21 -50 22 -50 1 0 -10 -6 -13 -19 -9
-24 7 -45 -25 -60 -93 -15 -70 -14 -72 9 -72 25 0 25 -7 1 -43 -15 -23 -19
-50 -20 -125 -1 -52 -4 -99 -7 -104 -3 -4 0 -59 7 -121 12 -109 14 -114 41
-130 15 -9 28 -24 28 -33 0 -15 -3 -15 -20 4 -12 12 -25 22 -29 22 -10 0 -21
-50 -21 -96 0 -38 8 -41 50 -19 l30 16 0 -41 c0 -29 -4 -40 -15 -40 -9 0 -15
9 -15 21 0 15 -4 19 -16 15 -9 -3 -22 -6 -30 -6 -19 0 -18 -34 3 -112 9 -35
16 -73 15 -85 -1 -12 3 -25 9 -29 8 -5 8 -9 0 -14 -12 -7 -15 -63 -8 -130 2
-19 18 -66 36 -104 26 -54 33 -84 35 -140 1 -39 5 -76 9 -82 4 -7 0 -17 -8
-24 -24 -20 -18 -33 26 -58 30 -18 39 -29 37 -45 -2 -17 -12 -23 -43 -27 -46
-7 -152 -47 -177 -68 -35 -29 -36 -171 -1 -168 9 0 24 -15 35 -36 32 -60 50
-50 87 47 20 49 39 85 47 85 8 0 14 -6 14 -14 0 -15 30 -26 71 -26 44 0 42
-13 -11 -60 -46 -40 -53 -53 -71 -118 -11 -40 -17 -77 -14 -83 4 -5 23 -9 45
-9 31 0 44 6 69 35 17 20 31 42 31 50 0 26 70 165 83 165 19 0 55 -69 68 -131
12 -56 37 -109 52 -109 5 0 5 -10 2 -22 -6 -17 -4 -20 9 -15 10 4 16 1 16 -8
0 -8 6 -15 14 -15 10 0 13 11 10 43 -10 116 -11 133 -3 148 5 9 3 21 -3 27
-22 22 -10 393 14 408 4 3 8 18 8 34 0 21 9 36 30 52 17 12 30 27 30 32 1 11
50 37 110 57 19 7 42 18 50 25 9 7 46 27 82 43 36 17 68 37 71 46 4 8 13 15
22 15 14 0 14 -3 -1 -25 -9 -13 -24 -27 -35 -30 -11 -4 -17 -10 -14 -15 3 -5
-2 -25 -12 -44 -13 -28 -14 -39 -5 -48 9 -9 24 -4 63 21 55 34 79 34 79 1 0
-15 -12 -27 -45 -41 -24 -11 -47 -24 -50 -30 -4 -5 -24 -21 -46 -35 -21 -13
-39 -30 -39 -38 0 -7 -9 -16 -20 -19 -26 -7 -36 -35 -21 -58 9 -16 8 -19 -6
-19 -15 -1 -13 -5 10 -25 15 -13 27 -31 27 -40 0 -8 5 -15 11 -15 5 0 8 -4 5
-9 -12 -19 52 -22 102 -6 61 20 83 17 98 -13 18 -36 63 -79 98 -93 17 -7 41
-23 53 -36 26 -28 79 -31 143 -8 23 8 55 15 70 15 16 0 38 10 52 24 26 27 78
45 78 28 0 -6 -8 -13 -17 -16 -10 -3 -31 -17 -47 -31 -16 -14 -41 -25 -55 -25
-29 0 -171 -67 -171 -81 0 -5 -7 -9 -15 -9 -8 0 -15 -4 -15 -9 0 -22 13 -41
29 -41 23 0 119 38 161 63 48 29 140 107 140 119 0 6 20 33 45 60 25 28 45 53
45 57 0 4 18 17 40 30 31 17 42 31 51 64 14 56 35 87 59 87 11 0 25 9 32 20 7
11 18 20 24 20 16 0 61 -94 74 -152 21 -99 56 -157 153 -253 65 -64 113 -102
162 -127 94 -49 133 -56 163 -28 24 23 29 40 10 40 -7 0 -25 6 -39 14 -14 7
-37 16 -52 20 -26 6 -38 26 -17 26 6 0 10 7 10 16 0 12 10 15 43 14 64 -3 68
-1 66 18 -4 23 26 77 53 96 25 18 70 21 98 6 24 -13 84 16 76 37 -3 8 1 28 9
44 10 19 13 35 7 47 -5 9 -12 48 -15 86 -4 43 -13 76 -23 88 -10 10 -15 19
-13 21 37 22 53 27 59 20 4 -4 13 -44 19 -88 7 -44 16 -101 21 -126 5 -25 12
-87 16 -139 6 -74 4 -95 -7 -104 -8 -6 -15 -32 -16 -61 -4 -80 -27 -202 -36
-187 -11 17 -37 15 -59 -5 -20 -18 -114 -24 -155 -9 -21 8 -22 6 -14 -21 5
-17 5 -37 -1 -47 -5 -9 -7 -25 -3 -35 3 -11 1 -22 -5 -26 -8 -5 -7 -11 1 -21
10 -12 9 -18 -4 -31 -14 -14 -18 -14 -46 6 -17 12 -31 26 -31 31 0 34 -224
230 -242 212 -5 -5 5 -35 22 -68 16 -32 30 -74 30 -91 0 -33 -1 -33 -48 -33
-37 0 -50 4 -61 21 -12 21 -18 22 -129 15 -65 -3 -135 -9 -157 -12 -93 -12
-264 1 -271 20 -3 7 2 45 11 85 8 41 13 77 10 80 -17 16 -178 -110 -230 -180
-30 -40 -61 -98 -72 -134 -15 -48 -17 -115 -3 -115 6 0 10 -8 10 -19 0 -24 23
-43 43 -35 8 3 34 33 58 67 57 83 114 137 142 137 25 0 47 -17 47 -36 0 -7 14
-33 30 -58 23 -33 29 -52 24 -70 -5 -20 -2 -28 12 -33 33 -13 87 -53 71 -53
-8 0 -17 -5 -19 -10 -2 -6 -41 -15 -88 -20 -72 -8 -87 -8 -96 5 -16 21 -27 19
-21 -5 3 -11 1 -20 -5 -20 -5 0 -29 -19 -51 -43 -23 -24 -58 -54 -77 -67 -42
-29 -51 -40 -90 -107 -19 -34 -39 -55 -54 -59 -14 -3 -27 -13 -31 -22 -5 -14
-8 -14 -15 -3 -4 8 -28 17 -52 20 -36 6 -43 10 -41 28 1 11 -7 29 -17 38 -11
10 -20 29 -20 43 0 22 -3 24 -30 19 -31 -7 -42 6 -15 17 8 3 15 12 15 21 0 12
-10 15 -42 13 -25 -2 -42 1 -41 7 1 6 5 23 9 39 5 21 4 27 -5 22 -12 -8 -41
16 -41 33 0 6 11 11 25 11 31 0 33 17 3 22 -31 4 -29 31 2 38 23 5 23 7 7 16
-15 8 -16 15 -8 37 13 33 46 27 35 -6 -5 -16 -3 -19 11 -13 10 3 37 11 62 17
32 9 48 19 59 41 8 16 13 35 10 41 -3 7 -7 3 -11 -9 -7 -24 -55 -35 -112 -27
-26 4 -33 10 -32 27 0 11 3 15 6 9 2 -7 22 -13 43 -13 39 0 59 13 40 25 -23
14 -7 24 42 27 33 2 53 8 56 17 4 11 -2 12 -23 7 -15 -4 -24 -3 -21 2 3 5 17
12 31 14 19 4 25 1 25 -13 0 -22 44 -27 57 -6 10 17 10 86 -1 80 -4 -3 -5 4
-1 16 4 14 1 23 -9 27 -9 3 -16 12 -16 19 0 16 -27 27 -35 15 -4 -6 -15 -10
-26 -10 -16 0 -19 5 -14 20 5 16 3 19 -12 13 -10 -4 -23 -14 -30 -22 -11 -14
-12 -14 -13 3 0 12 -5 16 -15 12 -10 -3 -15 1 -15 13 0 25 -10 32 -31 20 -14
-7 -23 -5 -39 11 -21 21 -65 27 -75 10 -3 -5 -14 -10 -25 -10 -18 0 -36 -42
-25 -60 10 -16 35 -12 35 5 0 10 10 15 30 15 17 0 30 -4 30 -10 0 -16 -36 -30
-78 -30 -34 0 -38 -3 -38 -22 1 -18 -5 -24 -26 -26 -16 -2 -28 -8 -28 -13 0
-6 9 -7 20 -4 11 4 20 2 20 -4 0 -6 7 -11 16 -11 8 0 13 4 9 9 -8 14 29 23 60
15 29 -7 32 -41 3 -36 -12 2 -15 -3 -11 -18 3 -11 9 -23 14 -26 17 -10 9 -26
-11 -21 -11 3 -23 1 -26 -4 -3 -5 -19 -9 -35 -9 -17 0 -32 -6 -35 -15 -8 -20
-20 -19 -43 4 -15 15 -28 19 -55 14 -20 -3 -36 -9 -36 -13 0 -5 9 -6 20 -3 14
4 20 0 20 -10 0 -23 -16 -29 -38 -16 -27 17 -52 4 -52 -27 0 -16 -5 -24 -12
-22 -7 3 -13 11 -13 18 0 7 -6 15 -12 17 -7 3 -13 -1 -13 -7 0 -7 -8 -9 -20
-5 -20 6 -28 -9 -10 -20 17 -11 11 -35 -9 -35 -12 0 -21 -8 -23 -20 -2 -12 -7
-22 -13 -23 -6 -1 -14 40 -19 95 -6 67 -13 99 -23 102 -8 3 -54 3 -103 -1
-102 -7 -112 -18 -61 -65 27 -26 41 -64 41 -112 0 -108 -195 -368 -380 -506
-25 -19 -65 -51 -89 -73 -41 -34 -131 -82 -251 -132 -25 -11 -99 -49 -165 -86
-160 -88 -262 -134 -450 -200 l-80 -28 -3 -466 -2 -465 1055 0 c580 0 1055 2
1055 4 0 7 -103 270 -150 381 -23 55 -48 123 -55 152 -7 28 -18 60 -23 70 -6
10 -40 92 -76 182 -37 90 -104 238 -150 330 -145 290 -205 469 -206 606 0 22
5 47 10 55 9 13 13 12 28 -6 9 -11 29 -28 44 -37 29 -18 54 -84 43 -117 -11
-36 51 -140 128 -215 40 -38 82 -74 94 -80 36 -17 204 -169 199 -180 -2 -6 7
-21 20 -34 13 -13 24 -27 24 -33 0 -15 -102 76 -170 152 -35 39 -65 68 -68 66
-5 -6 39 -66 93 -126 84 -95 117 -134 143 -168 l26 -35 -24 8 c-22 7 -22 5 11
-36 19 -24 60 -73 93 -109 32 -36 79 -96 104 -135 98 -150 155 -211 214 -234
13 -5 51 -29 84 -55 68 -50 77 -54 67 -29 -5 13 -2 15 11 10 10 -4 20 -7 22
-7 2 0 4 -7 4 -16 0 -9 -65 -82 -145 -162 -134 -135 -175 -185 -109 -133 18
14 41 21 72 21 43 0 44 -1 39 -27 -3 -16 -9 -36 -12 -45 -7 -17 12 -18 314
-18 l321 0 0 30 c0 17 5 30 10 30 6 0 10 -4 10 -10 0 -27 41 -50 91 -50 43 0
50 2 45 18 -3 9 -12 49 -20 87 -36 168 -105 313 -185 389 -27 26 -33 28 -56
18 -14 -7 -57 -15 -95 -18 -59 -6 -70 -4 -70 8 0 9 -8 19 -17 23 -16 6 -14 8
9 21 15 8 36 13 47 11 21 -2 115 75 223 185 47 49 78 93 108 154 24 47 54 93
68 102 69 46 243 228 332 348 138 185 196 302 222 447 11 61 25 123 31 136 7
14 32 36 56 51 25 14 46 30 47 35 2 6 -18 24 -44 41 -55 36 -64 60 -28 74 30
11 32 26 12 75 -8 18 -12 43 -9 55 3 12 -1 28 -10 38 -12 13 -14 26 -7 62 5
25 9 64 10 88 0 47 15 55 32 16 9 -19 9 -41 0 -92 -6 -37 -7 -71 -3 -75 26
-26 72 29 86 101 9 43 25 31 25 -19 0 -44 -21 -93 -45 -107 -16 -8 -11 -42 6
-42 18 0 75 159 94 260 4 19 18 82 32 139 38 158 20 221 -63 221 -36 0 -42 8
-21 29 10 10 8 14 -6 22 -17 10 -17 12 1 37 31 44 30 194 -2 300 -14 46 -28
123 -32 172 -6 79 -10 92 -34 117 -15 15 -30 38 -34 51 -7 21 -6 22 13 11 28
-18 31 -11 18 39 -12 47 -24 53 -36 20 -8 -23 -8 -23 -15 -2 -3 12 -4 28 -1
36 3 8 -3 38 -15 67 -11 28 -20 54 -20 56 0 13 30 3 40 -12 27 -44 -6 102 -54
237 l-51 145 0 163 c0 125 -3 165 -13 171 -11 7 -11 9 2 14 9 4 16 16 16 28 0
13 -5 19 -12 17 -22 -9 -73 27 -76 53 -5 35 -53 102 -87 118 -38 19 -79 18
-188 -3 -48 -9 -92 -14 -97 -11 -5 3 -26 -1 -46 -10 -28 -11 -46 -13 -68 -6
-17 5 -38 10 -46 10 -8 0 -30 4 -48 7 -19 4 -38 2 -46 -5 -8 -7 -17 -8 -20 -3
-3 5 -28 12 -56 15 -50 6 -172 68 -200 101 -10 13 -38 16 -154 16 -146 0 -191
-9 -199 -41 -6 -23 -127 -41 -127 -19 0 11 1 12 73 30 26 7 47 17 47 21 0 5
-29 9 -65 9 -49 0 -63 -3 -59 -13 7 -19 -43 -44 -58 -29 -9 9 -7 15 8 27 17
13 4 14 -128 15 -127 0 -147 -2 -142 -15 4 -10 0 -15 -16 -15 -16 0 -20 -4
-16 -18 4 -12 -1 -26 -14 -37 -18 -16 -20 -16 -26 -1 -6 16 -3 34 11 69 5 13
2 17 -14 17 -16 0 -21 -6 -21 -26 0 -32 -30 -30 -45 4 -15 33 -51 29 -75 -10z
m725 -18 c3 -5 -3 -10 -15 -10 -12 0 -18 5 -15 10 3 6 10 10 15 10 5 0 12 -4
15 -10z m-610 -70 c3 -5 -13 -9 -41 -8 -29 0 -41 4 -33 9 19 12 66 11 74 -1z
m1102 -19 c26 -25 116 -71 168 -86 21 -7 42 -18 46 -26 3 -8 14 -28 23 -46 18
-35 21 -69 6 -78 -20 -12 -78 8 -114 40 -22 19 -44 31 -53 28 -8 -3 -24 -1
-36 5 -12 5 -30 13 -41 16 -14 5 -17 14 -14 44 3 26 -1 45 -15 64 -18 25 -18
58 1 58 4 0 17 -9 29 -19z m137 -10 c7 -10 94 -23 151 -21 22 0 64 8 93 17 29
9 56 13 60 9 9 -10 -27 -36 -49 -36 -9 0 -22 -7 -29 -15 -14 -17 -85 -21 -95
-5 -3 5 -12 7 -20 4 -23 -9 -123 16 -147 36 l-23 19 27 1 c15 0 29 -4 32 -9z
m-546 -37 c25 -17 30 -54 7 -54 -8 0 -15 -4 -15 -10 0 -5 8 -10 19 -10 10 0
24 -7 31 -15 7 -8 19 -15 26 -15 8 0 14 -7 14 -15 0 -9 7 -18 15 -21 18 -7 21
-74 3 -74 -6 0 -19 -6 -27 -14 -21 -18 -88 -30 -96 -16 -11 18 -30 11 -47 -18
-9 -15 -33 -33 -54 -41 -35 -13 -38 -12 -55 10 -15 21 -16 26 -3 40 12 14 11
17 -13 29 -63 32 -72 79 -28 134 20 25 31 29 69 29 43 0 47 3 58 33 11 30 21
37 63 43 6 0 21 -6 33 -15z m-729 -31 c8 -16 17 -36 22 -45 12 -23 11 -28 -1
-28 -5 0 -10 5 -10 12 0 20 -32 48 -55 48 -15 0 -31 -16 -56 -55 -18 -30 -42
-57 -51 -61 -30 -9 -20 -23 22 -30 22 -4 40 -9 40 -11 0 -2 -11 -19 -25 -37
-29 -38 -33 -76 -9 -76 9 0 25 11 36 25 25 33 102 85 124 85 13 0 14 3 4 15
-7 8 -26 15 -42 15 -42 0 -31 24 13 28 41 3 74 -21 83 -61 5 -21 2 -29 -11
-33 -10 -3 -26 -10 -36 -15 -13 -7 -23 -6 -33 2 -11 9 -15 8 -20 -5 -3 -9 -13
-16 -20 -16 -8 0 -19 -11 -24 -25 -5 -14 -16 -25 -24 -25 -7 0 -16 -7 -20 -15
-7 -19 -50 -19 -66 -1 -6 8 -12 37 -13 65 -2 36 -8 56 -25 74 l-23 24 26 32
c15 17 33 31 41 31 8 0 14 5 14 10 0 6 16 27 35 47 19 20 35 40 35 45 0 4 13
8 28 8 21 0 32 -7 41 -27z m-131 -9 c-10 -10 -21 -13 -29 -8 -12 7 0 14 41 23
2 1 -3 -6 -12 -15z m-110 -116 c18 -18 15 -42 -8 -56 -19 -11 -20 -10 -20 28
0 41 7 49 28 28z m-73 -38 c3 -5 1 -10 -4 -10 -6 0 -11 5 -11 10 0 6 2 10 4
10 3 0 8 -4 11 -10z m2077 -82 c13 -18 32 -51 43 -73 10 -22 31 -56 47 -75 27
-33 37 -70 19 -70 -5 0 -12 -11 -15 -25 -4 -16 -13 -25 -25 -25 -23 0 -91 76
-91 101 0 9 -21 38 -46 63 -45 46 -53 76 -19 76 8 0 15 8 15 18 0 21 18 42 36
42 6 0 23 -15 36 -32z m-2052 -238 c0 -18 -4 -29 -10 -25 -5 3 -10 15 -10 26
0 24 -51 79 -74 79 -11 0 -16 -9 -16 -31 0 -20 -4 -29 -12 -27 -23 8 -20 36 8
68 l28 31 43 -45 c32 -34 43 -53 43 -76z m-134 -22 c8 -25 21 -22 28 6 10 42
66 47 66 5 0 -10 5 -19 10 -19 6 0 10 -6 10 -12 0 -7 10 -36 22 -66 l22 -52
-25 -17 c-13 -10 -37 -30 -52 -45 -35 -34 -37 -34 -37 -3 0 17 6 25 17 25 20
0 63 38 63 56 0 8 -6 28 -14 46 -8 18 -17 42 -21 53 -5 18 -8 17 -30 -10 -20
-25 -27 -28 -42 -19 -17 10 -61 88 -62 109 -1 13 37 -35 45 -57z m1708 -18
c58 -55 66 -59 66 -31 0 33 22 81 37 81 20 0 37 -19 63 -71 12 -24 24 -45 25
-47 2 -2 19 13 38 34 30 33 37 36 51 25 8 -7 21 -39 27 -72 6 -32 14 -59 18
-59 3 0 15 7 25 15 11 8 30 15 42 15 27 0 38 -36 29 -93 l-6 -37 40 0 c22 0
46 -7 55 -15 13 -14 13 -20 -1 -61 -8 -25 -14 -46 -12 -47 2 -1 22 -11 44 -22
47 -23 54 -46 26 -74 -12 -12 -21 -24 -21 -27 0 -4 18 -24 40 -45 46 -45 50
-66 15 -79 -31 -12 -31 -13 1 -45 41 -42 19 -42 -27 0 -45 40 -95 65 -131 65
-22 -1 -22 -2 7 -25 46 -37 22 -41 -29 -4 -77 54 -53 71 63 44 116 -26 142
-13 78 38 -28 23 -50 31 -111 37 -73 9 -116 23 -116 38 0 11 69 75 103 96 28
17 60 73 51 88 -12 20 -66 6 -101 -25 -52 -45 -89 -67 -113 -67 -17 0 -20 6
-20 48 0 26 7 70 16 97 16 52 12 169 -6 180 -15 10 -49 -70 -56 -132 -9 -71
-38 -143 -59 -143 -21 0 -51 52 -76 130 -24 77 -56 134 -98 174 -27 26 -31 27
-31 10 1 -35 27 -129 47 -169 35 -69 56 -146 45 -157 -14 -14 -98 36 -165 98
-26 24 -67 55 -90 68 -45 27 -124 49 -132 37 -9 -15 113 -129 173 -161 65 -34
135 -97 126 -112 -7 -11 -85 -3 -199 19 -81 16 -155 13 -228 -7 -40 -12 -42
-24 -5 -33 114 -28 164 -36 229 -37 87 0 179 -24 179 -45 0 -8 -3 -15 -7 -15
-5 0 -29 -7 -55 -15 -54 -16 -79 -1 -28 17 30 10 31 12 14 22 -11 6 -64 10
-119 10 -92 0 -106 -3 -170 -33 l-70 -33 40 -12 c39 -12 40 -12 13 -19 -33 -9
-108 2 -108 14 0 13 85 66 127 80 34 11 36 29 3 29 -11 0 -45 12 -77 26 -54
24 -57 26 -39 39 22 17 114 45 145 45 33 0 24 13 -31 45 -54 31 -78 58 -64 72
4 4 48 7 96 6 73 -1 88 1 83 13 -3 8 -8 14 -12 14 -12 0 -71 87 -64 94 13 13
94 5 142 -14 l50 -19 -25 52 c-26 57 -29 73 -14 82 11 7 99 -32 138 -61 l24
-18 -7 46 c-8 54 0 88 21 88 8 0 39 -22 68 -50z m-1030 -21 c16 -12 35 -19 47
-16 20 5 74 -16 85 -34 8 -14 -15 -69 -40 -96 -12 -13 -31 -23 -43 -23 -21 0
-30 -20 -24 -54 1 -5 -4 -16 -12 -25 -8 -9 -17 -24 -21 -35 -5 -14 -12 -17
-34 -11 -38 9 -48 21 -31 41 12 15 12 16 -6 11 -65 -20 -74 -19 -99 6 -21 21
-25 32 -19 59 8 40 31 73 61 87 12 6 27 22 32 36 10 25 56 75 70 75 4 0 19 -9
34 -21z m-784 -79 c-14 -10 -26 -18 -27 -16 -2 1 3 17 9 34 11 29 14 30 28 16
13 -13 12 -17 -10 -34z m190 41 c0 -5 -6 -14 -14 -21 -8 -6 -16 -25 -18 -43
l-3 -31 -14 27 c-13 25 -13 29 9 52 24 25 40 32 40 16z m-63 -112 c6 -6 10
-17 8 -23 -2 -6 -6 -24 -10 -39 -8 -40 -47 -34 -56 8 -9 47 30 82 58 54z
m-109 -76 c-13 -16 -50 -14 -55 3 -2 5 12 10 31 10 28 0 33 -3 24 -13z m32
-33 c0 -11 -7 -20 -15 -20 -18 0 -19 12 -3 28 16 16 18 15 18 -8z m100 11 c0
-5 -12 -19 -26 -32 -14 -13 -34 -33 -45 -44 -17 -17 -21 -18 -29 -5 -13 21
-12 30 3 25 6 -3 30 11 52 30 45 38 45 38 45 26z m-203 -43 c-3 -8 -6 -5 -6 6
-1 11 2 17 5 13 3 -3 4 -12 1 -19z m73 -46 c0 -11 -22 -32 -32 -32 -5 0 -4 9
2 20 11 20 30 28 30 12z m1966 -38 c22 -25 39 -34 62 -34 18 0 42 -10 57 -22
25 -22 25 -24 12 -68 -9 -33 -18 -45 -32 -45 -27 0 -50 48 -35 75 13 24 3 26
-28 4 -23 -16 -58 -12 -47 5 19 32 -37 96 -72 84 -16 -6 -17 -52 -3 -89 15
-39 6 -58 -20 -44 -13 7 -20 7 -20 0 0 -5 -7 -10 -15 -10 -19 0 -20 19 -1 26
14 5 11 39 -6 61 -5 7 -5 14 1 17 6 4 8 13 5 21 -3 8 6 25 20 38 35 33 81 26
122 -19z m-2091 -34 c3 -5 -1 -10 -9 -10 -9 0 -16 5 -16 10 0 6 4 10 9 10 6 0
13 -4 16 -10z m351 -35 c9 -14 14 -32 10 -40 -4 -11 2 -15 23 -15 15 0 35 -8
44 -18 14 -16 15 -23 4 -45 -14 -32 -47 -37 -47 -7 0 11 5 20 11 20 5 0 7 5 4
10 -4 7 -14 5 -28 -5 -32 -22 -39 -19 -32 18 9 45 -15 77 -44 60 -26 -16 -31
-16 -31 -1 0 18 31 48 51 48 10 0 26 -11 35 -25z m-70 -97 c-1 -24 -8 -44 -16
-46 -10 -4 -12 3 -7 26 4 17 2 34 -4 38 -7 4 -6 11 2 20 18 22 27 8 25 -38z
m1550 -51 c3 -3 -4 -20 -15 -38 -25 -43 -18 -72 20 -86 33 -13 48 -1 29 22
-17 21 22 51 83 64 62 14 71 14 169 -5 46 -8 107 -20 136 -25 58 -11 64 -20
27 -37 -15 -7 -22 -17 -19 -26 10 -26 -12 -25 -69 5 -32 16 -66 29 -77 29 -28
0 -35 -19 -14 -36 17 -14 16 -15 -23 -11 -39 5 -45 2 -80 -37 -21 -23 -47 -60
-57 -81 -14 -28 -31 -46 -60 -59 -46 -21 -85 -62 -86 -88 0 -11 -8 -18 -19
-18 -23 0 -36 16 -21 25 15 9 12 25 -4 25 -23 0 -83 81 -90 121 -5 31 -10 36
-26 32 -14 -4 -20 0 -20 11 0 13 -4 15 -17 8 -13 -8 -20 -3 -32 22 -9 17 -25
32 -36 34 -11 1 -51 18 -90 38 -81 40 -151 50 -148 21 0 -10 -8 -22 -20 -26
-46 -18 -112 -29 -125 -22 -21 12 15 37 109 78 69 30 97 37 159 38 93 3 172
-4 165 -15 -8 -13 29 -38 64 -42 42 -4 63 21 43 52 -11 18 -10 22 10 30 21 9
125 7 134 -3z m-1556 -43 c0 -8 -4 -14 -10 -14 -5 0 -10 -4 -10 -10 0 -5 9
-10 19 -10 11 0 23 5 26 10 12 19 22 10 23 -20 1 -37 10 -53 27 -46 24 9 25
-7 3 -31 -31 -34 -48 -29 -48 12 0 25 -5 37 -17 41 -38 12 -48 22 -49 50 0 16
1 32 3 36 6 12 33 -3 33 -18z m130 0 c0 -16 -16 -19 -25 -4 -8 13 4 32 16 25
5 -4 9 -13 9 -21z m484 17 c11 -4 20 -19 22 -36 3 -30 -20 -85 -37 -85 -5 0
-14 -11 -19 -25 -6 -15 -17 -25 -29 -25 -31 0 -33 16 -6 34 30 20 59 72 51 93
-9 21 -50 9 -95 -28 -20 -16 -44 -29 -53 -29 -22 0 -24 -28 -3 -36 22 -9 18
-26 -11 -47 -29 -22 -27 -24 -40 30 -15 60 12 103 65 103 14 0 46 14 70 30 46
31 54 33 85 21z m-494 -65 c0 -17 -14 -29 -23 -20 -8 8 3 34 14 34 5 0 9 -6 9
-14z m2174 -12 c24 -9 19 -24 -8 -24 -28 0 -43 16 -24 23 7 3 14 6 15 6 1 1 8
-2 17 -5z m-133 -34 c27 -22 17 -25 -29 -9 -18 6 -29 15 -26 20 9 15 30 10 55
-11z m-1113 -393 c9 -7 12 -22 8 -39 -3 -15 -1 -28 4 -28 6 0 10 -9 10 -21 0
-15 -5 -20 -22 -17 -19 2 -23 9 -23 38 -1 19 -10 48 -20 64 l-19 29 24 -8 c14
-4 31 -12 38 -18z m-207 -14 c12 -15 12 -16 -2 -11 -20 8 -39 -9 -39 -34 0
-10 -4 -18 -10 -18 -35 0 44 -63 94 -76 27 -6 36 -24 13 -24 -26 0 -131 40
-149 57 -24 21 -23 40 2 48 11 3 20 11 20 16 0 16 34 58 46 59 6 0 18 -8 25
-17z m1192 -21 c30 -20 37 -31 37 -58 0 -50 -15 -49 -50 6 -18 28 -38 50 -45
50 -17 0 -28 17 -20 30 7 11 29 4 78 -28z m-863 -62 c0 -5 -5 -10 -11 -10 -5
0 -7 5 -4 10 3 6 8 10 11 10 2 0 4 -4 4 -10z m-70 -49 c0 -16 -91 -32 -139
-25 l-46 7 45 12 c54 15 140 18 140 6z m1020 1 c0 -19 -50 -53 -86 -59 -37 -5
-38 -5 -19 10 11 9 26 17 33 17 7 0 20 9 29 20 18 20 43 27 43 12z m-143 -68
c-3 -3 -12 -4 -19 -1 -8 3 -5 6 6 6 11 1 17 -2 13 -5z m520 -306 c-3 -7 -5 -2
-5 12 0 14 2 19 5 13 2 -7 2 -19 0 -25z m-2337 12 c0 -5 -4 -10 -10 -10 -5 0
-10 5 -10 10 0 6 5 10 10 10 6 0 10 -4 10 -10z m595 -280 c3 -5 -1 -10 -9 -10
-9 0 -16 5 -16 10 0 6 4 10 9 10 6 0 13 -4 16 -10z m-299 -99 c25 -19 22 -31
-6 -31 -22 0 -44 25 -35 40 9 14 13 13 41 -9z m-86 -21 c0 -5 -7 -10 -16 -10
-8 0 -12 5 -9 10 3 6 10 10 16 10 5 0 9 -4 9 -10z m-75 -19 c8 -14 -10 -22
-30 -15 -13 5 -14 8 -3 15 17 11 26 11 33 0z m173 -27 c-30 -17 -53 -17 -66
-1 -8 9 1 12 40 13 45 0 48 -1 26 -12z m-232 -28 c16 -17 18 -26 4 -26 -5 0
-14 9 -20 20 -12 23 -5 26 16 6z m-76 -16 c0 -5 -2 -10 -4 -10 -3 0 -8 5 -11
10 -3 6 -1 10 4 10 6 0 11 -4 11 -10z m50 -19 c0 -6 -4 -13 -10 -16 -5 -3 -10
1 -10 9 0 9 5 16 10 16 6 0 10 -4 10 -9z m1688 -3 c-5 -16 -48 -24 -48 -10 0
11 17 20 38 21 8 1 12 -5 10 -11z m-1628 -34 c0 -16 -16 -19 -25 -4 -8 13 4
32 16 25 5 -4 9 -13 9 -21z m1690 -118 c0 -15 -3 -16 -15 -6 -8 7 -15 18 -15
24 0 24 -25 66 -42 72 -10 3 -18 11 -18 19 0 7 8 15 18 17 12 3 24 -10 44 -51
15 -31 27 -64 28 -75z m-1923 32 c-3 -8 -6 -5 -6 6 -1 11 2 17 5 13 3 -3 4
-12 1 -19z m1340 -55 c18 -8 37 -12 43 -8 6 4 18 1 27 -6 11 -10 46 -13 117
-12 121 2 139 -2 131 -28 -5 -15 -1 -19 20 -19 17 0 25 -5 22 -12 -5 -16 -44
-13 -145 9 -64 13 -95 14 -240 3 -92 -7 -174 -16 -183 -21 -9 -4 -26 -28 -37
-52 -29 -63 -132 -150 -190 -162 -10 -2 -25 -6 -34 -10 -12 -5 -18 -2 -18 8 0
8 -8 18 -17 21 -17 7 -7 18 156 184 40 41 202 128 219 118 4 -2 16 0 27 4 23
9 57 4 102 -17z m-776 -86 c-13 -13 -26 -3 -16 12 3 6 11 8 17 5 6 -4 6 -10
-1 -17z m659 -328 c0 -23 -29 -51 -77 -75 -32 -16 -44 -34 -22 -34 5 0 7 -5 4
-10 -4 -6 -11 -7 -17 -4 -7 5 -9 -5 -4 -30 6 -32 4 -37 -19 -48 -33 -15 -47 0
-17 19 31 21 28 33 -10 33 -31 0 -31 0 -13 20 11 12 25 18 36 15 14 -5 19 1
24 32 8 53 17 66 56 85 45 23 59 23 59 -3z m-110 -954 c0 -8 -7 -15 -15 -15
-8 0 -15 7 -15 15 0 8 7 15 15 15 8 0 15 -7 15 -15z"/>
<path d="M3081 4633 c12 -21 23 -39 24 -41 1 -1 9 0 18 4 13 5 10 12 -18 40
-44 44 -52 43 -24 -3z"/>
<path d="M3150 4605 c0 -24 56 -84 78 -85 21 0 14 14 -26 53 -35 34 -52 45
-52 32z"/>
<path d="M2557 4606 c-3 -8 -3 -23 0 -35 3 -11 2 -28 -1 -38 -6 -15 -10 -14
-32 10 -31 34 -68 35 -89 3 -21 -31 -9 -56 40 -85 19 -11 35 -25 35 -31 0 -21
19 -9 29 20 10 29 34 40 46 20 9 -14 78 -13 93 2 21 21 13 37 -38 74 -27 19
-52 44 -55 55 -7 22 -21 25 -28 5z"/>
<path d="M3630 4346 c0 -13 -2 -31 -5 -38 -4 -9 4 -19 20 -26 23 -11 25 -10
25 13 0 28 -20 75 -32 75 -4 0 -8 -11 -8 -24z"/>
<path d="M3674 4249 c-7 -12 25 -89 38 -89 4 0 8 17 8 38 0 49 -28 80 -46 51z"/>
<path d="M3286 4088 c-16 -80 -10 -141 21 -211 19 -44 34 -43 46 4 13 49 3
127 -24 182 -25 52 -36 58 -43 25z"/>
<path d="M2972 4063 c47 -104 98 -175 154 -214 57 -39 66 -37 49 10 -22 64
-43 98 -83 137 -45 43 -132 92 -120 67z"/>
<path d="M3526 3938 c-34 -34 -56 -89 -56 -140 0 -16 4 -28 9 -28 22 0 80 68
90 105 24 89 8 114 -43 63z"/>
<path d="M2730 3852 c0 -15 133 -79 202 -96 82 -21 148 -30 148 -20 0 11 -73
58 -142 91 -58 28 -208 46 -208 25z"/>
<path d="M3599 3697 c-46 -31 -44 -50 6 -59 56 -10 99 0 125 27 l21 23 -22 16
c-33 23 -90 20 -130 -7z"/>
<path d="M2095 4003 c6 -32 5 -33 -30 -33 -39 0 -75 -28 -75 -59 0 -29 17 -36
88 -36 52 0 62 2 59 15 -3 8 -6 21 -8 28 -3 8 15 20 46 30 38 13 52 24 59 44
5 15 8 29 5 32 -2 2 -37 6 -77 8 l-73 4 6 -33z"/>
<path d="M3015 3390 c3 -5 10 -10 16 -10 5 0 9 5 9 10 0 6 -7 10 -16 10 -8 0
-12 -4 -9 -10z"/>
<path d="M2965 3380 c4 -6 11 -8 16 -5 14 9 11 15 -7 15 -8 0 -12 -5 -9 -10z"/>
<path d="M3746 4668 c9 -51 11 -56 34 -68 21 -11 22 -10 15 22 -14 66 -60 109
-49 46z"/>
<path d="M3940 3715 c0 -8 5 -15 10 -15 6 0 10 7 10 15 0 8 -4 15 -10 15 -5 0
-10 -7 -10 -15z"/>
<path d="M1951 2414 c13 -16 29 -19 29 -5 0 5 -9 11 -21 14 -16 4 -18 3 -8 -9z"/>
<path d="M1880 2380 c-9 -6 -10 -10 -3 -10 6 0 15 5 18 10 8 12 4 12 -15 0z"/>
<path d="M1760 2347 c0 -13 -5 -17 -15 -13 -17 6 -22 -29 -5 -39 8 -5 8 -11 0
-20 -8 -10 -8 -15 1 -21 7 -4 20 2 31 16 22 27 23 41 3 34 -8 -4 -15 -2 -15 4
0 10 31 23 60 26 8 0 15 8 15 16 0 10 -12 15 -37 15 -31 2 -38 -2 -38 -18z"/>
<path d="M1665 2350 c-9 -14 4 -52 17 -48 5 2 9 7 9 11 -1 4 -1 16 -1 27 0 21
-15 27 -25 10z"/>
<path d="M1682 2258 c-8 -8 -7 -18 6 -40 20 -33 37 -37 27 -5 -4 12 -7 30 -6
40 0 20 -10 22 -27 5z"/>
<path d="M1840 2245 c0 -8 5 -15 10 -15 6 0 10 7 10 15 0 8 -4 15 -10 15 -5 0
-10 -7 -10 -15z"/>
<path d="M1770 2207 c0 -13 8 -31 18 -40 20 -18 47 -23 37 -8 -3 5 -1 12 5 16
12 7 -4 26 -38 44 -20 11 -22 9 -22 -12z"/>
<path d="M1935 2159 c-4 -6 -5 -13 -2 -16 7 -7 27 6 27 18 0 12 -17 12 -25 -2z"/>
<path d="M1876 2151 c-4 -5 -2 -12 3 -15 5 -4 12 -2 15 3 4 5 2 12 -3 15 -5 4
-12 2 -15 -3z"/>
<path d="M1680 2140 c0 -5 7 -10 15 -10 8 0 15 5 15 10 0 6 -7 10 -15 10 -8 0
-15 -4 -15 -10z"/>
<path d="M2139 1954 c-10 -12 -10 -17 -1 -23 7 -4 10 -15 6 -24 -5 -14 0 -17
25 -17 38 0 41 17 5 30 -21 8 -24 13 -15 24 7 9 8 17 3 20 -6 3 -16 -1 -23
-10z"/>
<path d="M2240 1930 c0 -5 5 -10 10 -10 6 0 10 5 10 10 0 6 -4 10 -10 10 -5 0
-10 -4 -10 -10z"/>
<path d="M3326 900 c-12 -78 -14 -340 -4 -600 5 -151 10 -281 10 -287 1 -10
147 -13 696 -13 l694 0 -51 58 c-188 217 -457 401 -788 538 -231 96 -508 256
-537 312 l-14 27 -6 -35z"/>
</g>
</svg>
